<mxfile host="65bd71144e" pages="1">
    <diagram id="aaj7mL1S4IDT17MkTl8F" name="第 1 页">
        <mxGraphModel dx="1374" dy="790" grid="1" gridSize="10" guides="1" tooltips="1" connect="1" arrows="1" fold="1" page="1" pageScale="1" pageWidth="3300" pageHeight="4681" math="0" shadow="0">
            <root>
                <mxCell id="0"/>
                <mxCell id="1" parent="0"/>
                <mxCell id="65" value="&lt;font style=&quot;font-size: 20px&quot;&gt;输入&lt;/font&gt;" style="rounded=0;whiteSpace=wrap;html=1;" parent="1" vertex="1">
                    <mxGeometry x="470" y="195" width="120" height="60" as="geometry"/>
                </mxCell>
                <mxCell id="66" value="&lt;font style=&quot;font-size: 20px&quot;&gt;处理&lt;/font&gt;" style="rounded=0;whiteSpace=wrap;html=1;" parent="1" vertex="1">
                    <mxGeometry x="690" y="195" width="120" height="60" as="geometry"/>
                </mxCell>
                <mxCell id="67" value="&lt;span style=&quot;font-size: 20px&quot;&gt;输出&lt;/span&gt;" style="rounded=0;whiteSpace=wrap;html=1;" parent="1" vertex="1">
                    <mxGeometry x="910" y="195" width="120" height="60" as="geometry"/>
                </mxCell>
                <mxCell id="68" value="&lt;font style=&quot;font-size: 18px&quot;&gt;账户密码登录&lt;/font&gt;" style="rounded=0;whiteSpace=wrap;html=1;" parent="1" vertex="1">
                    <mxGeometry x="470" y="275" width="120" height="100" as="geometry"/>
                </mxCell>
                <mxCell id="69" value="&lt;font style=&quot;font-size: 18px&quot;&gt;用户验证登录客户端&lt;/font&gt;" style="rounded=0;whiteSpace=wrap;html=1;fontStyle=0" parent="1" vertex="1">
                    <mxGeometry x="690" y="275" width="120" height="100" as="geometry"/>
                </mxCell>
                <mxCell id="70" value="&lt;font style=&quot;font-size: 18px&quot;&gt;显示用户登录界面&lt;/font&gt;" style="rounded=0;whiteSpace=wrap;html=1;fontStyle=0" parent="1" vertex="1">
                    <mxGeometry x="910" y="275" width="120" height="100" as="geometry"/>
                </mxCell>
                <mxCell id="71" value="" style="shape=flexArrow;endArrow=classic;html=1;" parent="1" edge="1">
                    <mxGeometry width="50" height="50" relative="1" as="geometry">
                        <mxPoint x="615" y="324" as="sourcePoint"/>
                        <mxPoint x="665" y="324" as="targetPoint"/>
                    </mxGeometry>
                </mxCell>
                <mxCell id="72" value="" style="shape=flexArrow;endArrow=classic;html=1;" parent="1" edge="1">
                    <mxGeometry width="50" height="50" relative="1" as="geometry">
                        <mxPoint x="835" y="325" as="sourcePoint"/>
                        <mxPoint x="885" y="325" as="targetPoint"/>
                    </mxGeometry>
                </mxCell>
                <mxCell id="73" value="选择编辑自身账户信息，输入修改信息" style="rounded=0;whiteSpace=wrap;html=1;fontSize=18;fontStyle=0" parent="1" vertex="1">
                    <mxGeometry x="470" y="405" width="120" height="100" as="geometry"/>
                </mxCell>
                <mxCell id="74" value="向服务器提交修改请求，发起修改信息请求" style="rounded=0;whiteSpace=wrap;html=1;fontStyle=0;fontSize=18;" parent="1" vertex="1">
                    <mxGeometry x="690" y="405" width="120" height="100" as="geometry"/>
                </mxCell>
                <mxCell id="75" value="显示个人信息已修改" style="rounded=0;whiteSpace=wrap;html=1;fontStyle=0;fontSize=18;" parent="1" vertex="1">
                    <mxGeometry x="910" y="405" width="120" height="100" as="geometry"/>
                </mxCell>
                <mxCell id="76" value="" style="shape=flexArrow;endArrow=classic;html=1;fontSize=18;fontStyle=0" parent="1" edge="1">
                    <mxGeometry width="50" height="50" relative="1" as="geometry">
                        <mxPoint x="615" y="454" as="sourcePoint"/>
                        <mxPoint x="665" y="454" as="targetPoint"/>
                    </mxGeometry>
                </mxCell>
                <mxCell id="77" value="" style="shape=flexArrow;endArrow=classic;html=1;fontSize=18;fontStyle=0" parent="1" edge="1">
                    <mxGeometry width="50" height="50" relative="1" as="geometry">
                        <mxPoint x="835" y="455" as="sourcePoint"/>
                        <mxPoint x="885" y="455" as="targetPoint"/>
                    </mxGeometry>
                </mxCell>
                <mxCell id="78" value="选择搜索框，输入目标产业相关信息" style="rounded=0;whiteSpace=wrap;html=1;fontSize=18;fontStyle=0" parent="1" vertex="1">
                    <mxGeometry x="470" y="535" width="120" height="100" as="geometry"/>
                </mxCell>
                <mxCell id="79" value="向服务器发起请求，提交搜索指令" style="rounded=0;whiteSpace=wrap;html=1;fontStyle=0;fontSize=18;" parent="1" vertex="1">
                    <mxGeometry x="690" y="535" width="120" height="100" as="geometry"/>
                </mxCell>
                <mxCell id="80" value="显示符合搜索条件的产业信息" style="rounded=0;whiteSpace=wrap;html=1;fontStyle=0;fontSize=18;" parent="1" vertex="1">
                    <mxGeometry x="910" y="535" width="120" height="100" as="geometry"/>
                </mxCell>
                <mxCell id="81" value="" style="shape=flexArrow;endArrow=classic;html=1;fontSize=18;fontStyle=0" parent="1" edge="1">
                    <mxGeometry width="50" height="50" relative="1" as="geometry">
                        <mxPoint x="615" y="584" as="sourcePoint"/>
                        <mxPoint x="665" y="584" as="targetPoint"/>
                    </mxGeometry>
                </mxCell>
                <mxCell id="82" value="" style="shape=flexArrow;endArrow=classic;html=1;fontSize=18;fontStyle=0" parent="1" edge="1">
                    <mxGeometry width="50" height="50" relative="1" as="geometry">
                        <mxPoint x="835" y="585" as="sourcePoint"/>
                        <mxPoint x="885" y="585" as="targetPoint"/>
                    </mxGeometry>
                </mxCell>
                <mxCell id="83" value="从搜索结果中选择某个具体条目，查看详细信息" style="rounded=0;whiteSpace=wrap;html=1;fontSize=18;fontStyle=0" parent="1" vertex="1">
                    <mxGeometry x="470" y="665" width="120" height="100" as="geometry"/>
                </mxCell>
                <mxCell id="84" value="向服务器发起请求，提交获取详细信息指令" style="rounded=0;whiteSpace=wrap;html=1;fontStyle=0;fontSize=18;" parent="1" vertex="1">
                    <mxGeometry x="690" y="665" width="120" height="100" as="geometry"/>
                </mxCell>
                <mxCell id="85" value="&lt;span style=&quot;white-space: normal; font-size: 18px;&quot;&gt;显示具体产业的详细信息&lt;/span&gt;" style="rounded=0;whiteSpace=wrap;html=1;fontStyle=0;fontSize=18;" parent="1" vertex="1">
                    <mxGeometry x="910" y="665" width="120" height="100" as="geometry"/>
                </mxCell>
                <mxCell id="86" value="" style="shape=flexArrow;endArrow=classic;html=1;fontSize=18;fontStyle=0" parent="1" edge="1">
                    <mxGeometry width="50" height="50" relative="1" as="geometry">
                        <mxPoint x="615" y="714" as="sourcePoint"/>
                        <mxPoint x="665" y="714" as="targetPoint"/>
                    </mxGeometry>
                </mxCell>
                <mxCell id="87" value="" style="shape=flexArrow;endArrow=classic;html=1;fontSize=18;fontStyle=0" parent="1" edge="1">
                    <mxGeometry width="50" height="50" relative="1" as="geometry">
                        <mxPoint x="835" y="715" as="sourcePoint"/>
                        <mxPoint x="885" y="715" as="targetPoint"/>
                    </mxGeometry>
                </mxCell>
            </root>
        </mxGraphModel>
    </diagram>
</mxfile>